<?xml version="1.0" encoding="utf-8"?>
<!-- Generator: Adobe Illustrator 20.0.0, SVG Export Plug-In . SVG Version: 6.00 Build 0)  -->
<svg version="1.1" id="Layer_1" xmlns="http://www.w3.org/2000/svg" xmlns:xlink="http://www.w3.org/1999/xlink" x="0px" y="0px"
	 viewBox="0 0 22 22" enable-background="new 0 0 22 22" xml:space="preserve">
<path fill="#4877F9" d="M16.9,5.1c0,3.2-2.6,5.9-5.9,5.9c-3.2,0-5.9-2.6-5.9-5.9c0-0.6,0.1-1.2,0.3-1.7c-1.5,0.4-3,1-4.4,1.7
	c0,0.1,0,0.1,0,0.2c0,6.2,5.5,12,8.3,14.6c1,0.9,2.4,0.9,3.4,0c2.9-2.6,8.3-8.4,8.3-14.6c0-0.1,0-0.1,0-0.2
	c-1.4-0.7-2.9-1.3-4.4-1.7C16.8,4,16.9,4.5,16.9,5.1z"/>
<circle fill="#4877F9" cx="11" cy="5.1" r="3.7"/>
</svg>
