<?xml version="1.0" encoding="utf-8"?>
<!-- Generator: Adobe Illustrator 19.2.1, SVG Export Plug-In . SVG Version: 6.00 Build 0)  -->
<svg version="1.1" id="Layer_1" xmlns="http://www.w3.org/2000/svg" xmlns:xlink="http://www.w3.org/1999/xlink" x="0px" y="0px"
	 viewBox="0 0 85 30" enable-background="new 0 0 85 30" xml:space="preserve">
<g>
	<g>
		<path fill="#4877F9" d="M18.4,10c0,2.8-2.2,5-5,5c-2.8,0-5-2.2-5-5c0-0.5,0.1-1,0.2-1.5C7.3,8.9,6,9.4,4.8,10c0,0,0,0.1,0,0.1
			c0,5.2,4.7,10.2,7.1,12.4c0.8,0.7,2.1,0.7,2.9,0c2.4-2.2,7.1-7.2,7.1-12.4c0,0,0-0.1,0-0.1c-1.2-0.6-2.5-1.1-3.8-1.5
			C18.3,9,18.4,9.5,18.4,10z"/>
		<circle fill="#4877F9" cx="13.4" cy="10" r="3.1"/>
	</g>
	<g enable-background="new    ">
		<g>
			<path fill="#FFFFFF" d="M34.3,12.9c-0.3,0.3-0.6,0.7-1,1.2s-0.9,1.1-1.4,1.7c-0.5,0.6-1,1.3-1.4,2s-0.9,1.3-1.3,2h5.2v1.4h-7.3
				V20c0.3-0.5,0.7-1.1,1.1-1.8c0.4-0.6,0.9-1.3,1.3-1.9c0.5-0.6,0.9-1.2,1.4-1.8c0.4-0.6,0.8-1,1.2-1.4h-4.7v-1.4h6.9V12.9z"/>
			<path fill="#FFFFFF" d="M35.8,16.4c0-0.8,0.1-1.6,0.4-2.2c0.2-0.6,0.6-1.1,1-1.6c0.4-0.4,0.9-0.7,1.4-0.9
				c0.5-0.2,1.1-0.3,1.6-0.3c1.3,0,2.3,0.4,2.9,1.2c0.7,0.8,1,2,1,3.6c0,0.1,0,0.2,0,0.3s0,0.2,0,0.3h-6.5c0.1,1,0.4,1.7,0.9,2.2
				c0.5,0.5,1.3,0.8,2.3,0.8c0.6,0,1.1-0.1,1.5-0.2c0.4-0.1,0.7-0.2,0.9-0.3l0.2,1.4c-0.2,0.1-0.6,0.2-1.1,0.3
				c-0.5,0.1-1.1,0.2-1.8,0.2c-0.8,0-1.5-0.1-2.1-0.4s-1.1-0.6-1.5-1c-0.4-0.4-0.7-1-0.9-1.6C35.9,17.8,35.8,17.1,35.8,16.4z
				 M42.3,15.5c0-0.8-0.2-1.4-0.6-1.9c-0.4-0.5-0.9-0.7-1.6-0.7c-0.4,0-0.7,0.1-1,0.2c-0.3,0.2-0.6,0.4-0.8,0.6
				c-0.2,0.2-0.4,0.5-0.5,0.8c-0.1,0.3-0.2,0.6-0.2,1H42.3z"/>
			<path fill="#FFFFFF" d="M49.6,11.4c0.7,0,1.3,0.1,1.7,0.3s0.8,0.4,1.1,0.7c0.3,0.3,0.5,0.7,0.6,1.2c0.1,0.4,0.2,0.9,0.2,1.5V21
				c-0.1,0-0.4,0.1-0.6,0.1c-0.3,0-0.6,0.1-0.9,0.1c-0.3,0-0.7,0.1-1.1,0.1c-0.4,0-0.8,0-1.1,0c-0.5,0-1-0.1-1.5-0.2
				c-0.5-0.1-0.8-0.3-1.2-0.5c-0.3-0.2-0.6-0.6-0.8-0.9c-0.2-0.4-0.3-0.9-0.3-1.4c0-0.5,0.1-1,0.3-1.4s0.5-0.7,0.9-0.9
				c0.4-0.2,0.8-0.4,1.3-0.5c0.5-0.1,1-0.2,1.5-0.2c0.2,0,0.3,0,0.5,0s0.4,0,0.5,0.1s0.3,0.1,0.4,0.1c0.1,0,0.2,0,0.3,0.1v-0.5
				c0-0.3,0-0.6-0.1-0.8s-0.2-0.5-0.3-0.7c-0.2-0.2-0.4-0.4-0.6-0.5c-0.3-0.1-0.6-0.2-1.1-0.2c-0.6,0-1.1,0-1.5,0.1
				s-0.7,0.2-0.9,0.2l-0.2-1.4c0.2-0.1,0.6-0.2,1.1-0.3C48.4,11.4,49,11.4,49.6,11.4z M49.7,19.9c0.4,0,0.8,0,1.1,0
				c0.3,0,0.6-0.1,0.8-0.1V17c-0.1-0.1-0.3-0.1-0.6-0.2c-0.3,0-0.6-0.1-1-0.1c-0.3,0-0.5,0-0.8,0.1c-0.3,0-0.5,0.1-0.8,0.2
				c-0.2,0.1-0.4,0.3-0.6,0.5c-0.2,0.2-0.2,0.5-0.2,0.8c0,0.6,0.2,1,0.6,1.3C48.5,19.8,49.1,19.9,49.7,19.9z"/>
			<path fill="#FFFFFF" d="M56.1,11.9c0.4-0.1,0.9-0.2,1.5-0.3c0.6-0.1,1.4-0.2,2.2-0.2c0.6,0,1.1,0.1,1.5,0.2
				c0.4,0.2,0.8,0.4,1,0.7c0.1-0.1,0.2-0.1,0.4-0.3s0.4-0.2,0.7-0.3c0.3-0.1,0.6-0.2,0.9-0.3s0.7-0.1,1.1-0.1c0.7,0,1.3,0.1,1.8,0.3
				c0.5,0.2,0.8,0.5,1.1,0.9c0.3,0.4,0.4,0.9,0.5,1.4s0.1,1.1,0.1,1.8v5.3h-1.7v-5c0-0.6,0-1-0.1-1.4s-0.2-0.7-0.3-1
				c-0.2-0.3-0.4-0.5-0.6-0.6s-0.6-0.2-1-0.2c-0.6,0-1,0.1-1.4,0.2c-0.4,0.2-0.6,0.3-0.8,0.4c0.1,0.3,0.2,0.7,0.2,1
				c0,0.4,0.1,0.8,0.1,1.2v5.3h-1.7v-5c0-0.6,0-1-0.1-1.4s-0.2-0.7-0.3-1c-0.2-0.3-0.4-0.5-0.6-0.6c-0.3-0.1-0.6-0.2-1-0.2
				c-0.2,0-0.4,0-0.5,0c-0.2,0-0.4,0-0.6,0c-0.2,0-0.3,0-0.5,0.1c-0.1,0-0.2,0-0.3,0.1v8h-1.7V11.9z"/>
			<path fill="#FFFFFF" d="M80.2,16.4c0,0.8-0.1,1.4-0.3,2s-0.5,1.1-0.9,1.6c-0.4,0.4-0.9,0.8-1.4,1c-0.5,0.2-1.1,0.4-1.8,0.4
				c-0.6,0-1.2-0.1-1.8-0.4c-0.5-0.2-1-0.6-1.4-1c-0.4-0.4-0.7-1-0.9-1.6c-0.2-0.6-0.3-1.3-0.3-2c0-0.7,0.1-1.4,0.3-2
				c0.2-0.6,0.5-1.1,0.9-1.6c0.4-0.4,0.9-0.8,1.4-1c0.5-0.2,1.1-0.4,1.8-0.4c0.6,0,1.2,0.1,1.8,0.4c0.5,0.2,1,0.6,1.4,1
				c0.4,0.4,0.7,1,0.9,1.6S80.2,15.6,80.2,16.4z M78.4,16.4c0-1.1-0.2-1.9-0.7-2.5c-0.5-0.6-1.1-0.9-2-0.9c-0.8,0-1.5,0.3-2,0.9
				c-0.5,0.6-0.7,1.5-0.7,2.5c0,1.1,0.2,1.9,0.7,2.6c0.5,0.6,1.1,0.9,2,0.9c0.8,0,1.5-0.3,2-0.9C78.2,18.3,78.4,17.5,78.4,16.4z"/>
		</g>
	</g>
</g>
</svg>
